<?xml version="1.0" standalone="no"?>
<!DOCTYPE svg PUBLIC "-//W3C//DTD SVG 20010904//EN"
 "http://www.w3.org/TR/2001/REC-SVG-20010904/DTD/svg10.dtd">
<svg version="1.0" xmlns="http://www.w3.org/2000/svg"
 width="512.000000pt" height="512.000000pt" viewBox="0 0 512.000000 512.000000"
 preserveAspectRatio="xMidYMid meet">
<metadata>
Created by potrace 1.14, written by Peter Selinger 2001-2017
</metadata>
<g transform="translate(0.000000,512.000000) scale(0.100000,-0.100000)"
fill="#000000" stroke="none">
<path d="M0 2560 l0 -2560 2560 0 2560 0 0 2560 0 2560 -2560 0 -2560 0 0
-2560z m2147 1394 c63 -46 63 -43 63 -539 l0 -450 313 311 c171 171 323 319
337 328 30 20 92 21 128 2 15 -8 161 -149 324 -313 212 -212 301 -307 307
-330 21 -73 11 -86 -332 -430 l-321 -323 447 0 c486 0 493 -1 535 -55 22 -27
22 -31 22 -472 0 -483 0 -480 -57 -519 -27 -18 -65 -19 -1352 -16 -1455 3
-1357 -1 -1395 62 -15 26 -16 144 -16 1350 0 1430 -3 1356 52 1392 13 9 33 18
43 21 11 3 212 4 447 3 414 -1 427 -2 455 -22z"/>
<path d="M1270 3690 l0 -160 405 0 405 0 0 160 0 160 -405 0 -405 0 0 -160z"/>
<path d="M2810 3385 l-115 -115 285 -285 285 -285 115 115 115 115 -285 285
-285 285 -115 -115z"/>
<path d="M1270 3240 l0 -160 405 0 405 0 0 160 0 160 -405 0 -405 0 0 -160z"/>
<path d="M2492 3067 l-112 -112 288 -288 287 -287 115 115 115 115 -285 285
c-157 157 -287 285 -290 285 -3 0 -56 -51 -118 -113z"/>
<path d="M1274 2937 c-2 -7 -3 -80 -2 -162 l3 -150 403 -3 402 -2 0 165 0 165
-400 0 c-319 0 -402 -3 -406 -13z"/>
<path d="M2247 2822 l-37 -38 0 -150 0 -149 213 -213 212 -212 115 115 115
115 -285 285 c-157 157 -287 285 -290 285 -3 0 -23 -17 -43 -38z"/>
<path d="M1274 2487 c-2 -7 -3 -80 -2 -162 l3 -150 403 -3 402 -2 0 165 0 165
-400 0 c-319 0 -402 -3 -406 -13z"/>
<path d="M2210 1970 l0 -335 167 168 168 167 -168 167 -167 168 0 -335z"/>
<path d="M2727 1972 l-107 -107 0 -298 0 -297 165 0 165 0 0 405 0 405 -58 0
-57 0 -108 -108z"/>
<path d="M3070 1675 l0 -405 165 0 165 0 0 405 0 405 -165 0 -165 0 0 -405z"/>
<path d="M3520 1675 l0 -405 165 0 165 0 0 405 0 405 -165 0 -165 0 0 -405z"/>
<path d="M1272 1663 l3 -388 403 -3 402 -2 0 390 0 390 -405 0 -405 0 2 -387z
m503 129 c43 -31 68 -88 63 -143 -12 -118 -132 -183 -237 -129 -131 66 -103
269 40 299 41 9 103 -3 134 -27z"/>
<path d="M2347 1602 l-137 -137 0 -98 0 -98 143 3 142 3 3 233 c1 127 -1 232
-5 232 -5 0 -70 -62 -146 -138z"/>
</g>
</svg>
