<?xml version="1.0" encoding="UTF-8" standalone="no"?><!DOCTYPE svg PUBLIC "-//W3C//DTD SVG 1.1//EN" "http://www.w3.org/Graphics/SVG/1.1/DTD/svg11.dtd"><svg width="100%" height="100%" viewBox="0 0 95 96" version="1.1" xmlns="http://www.w3.org/2000/svg" xmlns:xlink="http://www.w3.org/1999/xlink" xml:space="preserve" xmlns:serif="http://www.serif.com/" style="fill-rule:evenodd;clip-rule:evenodd;stroke-linejoin:round;stroke-miterlimit:2;"><rect id="Artboard1" x="0" y="0" width="94.904" height="95.1" style="fill:none;"/><g><g><g><path d="M90.7,59.4l-29.9,0l21.2,-21.2c1.7,-1.7 1.7,-4.4 0,-6.1l-19.2,-19c-1.7,-1.7 -4.4,-1.7 -6.1,-0l-21.1,21.1l0,-29.9c0,-2.4 -1.9,-4.3 -4.3,-4.3l-27,-0c-2.4,-0 -4.3,1.9 -4.3,4.3l0,86.4c0,2.4 1.9,4.3 4.3,4.3l86.3,0.1c2.4,0 4.3,-1.9 4.3,-4.3l0,-27c0.1,-2.5 -1.9,-4.4 -4.2,-4.4Zm-22.4,-13.5l-7.7,7.7l-19.2,-19.2l7.7,-7.7l19.2,19.2Zm-8.5,-29.9l19.1,19.2l-7.7,7.7l-19.1,-19.2l7.7,-7.7Zm-21.4,21.4l19.2,19.2l-7.7,7.7l-14.3,-14.3l0,-9.8l2.8,-2.8Zm-7,-18.1l0,10.9l-27.1,-0l0,-10.9l27.1,-0Zm0,15.2l0,10.9l-27.1,-0l0,-10.9l27.1,-0Zm0,15.1l0,10.9l-27.1,-0l0,-10.9l27.1,-0Zm4.2,6.4l11.3,11.3l-11.3,11.3l0,-22.6Zm-4.2,-51.7l0,10.8l-27.1,-0l0,-10.9l27.1,0.1Zm-27.1,86.4l0,-26l27.2,-0l0,26c0,-0 0,0.1 -0.1,0.1l-27.1,-0.1Zm31.3,0.1l0,-6.3l9.7,-9.7l0,16l-9.7,-0Zm24.9,-0l-10.9,-0l0,-20.2l7,-7l3.9,-0l0,27.2Zm15.1,-0l-10.9,-0l0,-27.2l10.9,-0l0,27.2Zm15.1,-0l-10.9,-0l0,-27.1l10.9,-0l0,27.1Z" style="fill:#fff;fill-rule:nonzero;"/><path d="M17.8,72.2c-3,0 -5.5,2.5 -5.5,5.5c-0,3 2.5,5.5 5.5,5.5c3,0 5.5,-2.5 5.5,-5.5c0.1,-3 -2.4,-5.5 -5.5,-5.5Z" style="fill:#fff;fill-rule:nonzero;"/></g></g></g></svg>